<svg width="185" height="185" viewBox="0 0 185 185" fill="none" xmlns="http://www.w3.org/2000/svg">
<rect width="184.166" height="184.166" rx="92.083" fill="#95EFFF"/>
<path d="M67.2708 126.482C65.1441 126.482 63.041 126.12 60.9616 125.398C58.8822 124.675 57.0567 123.496 55.4854 121.862C57.6853 121.108 59.2567 120.008 60.1995 118.562C61.1424 117.116 61.6138 115.168 61.6138 112.716C61.6138 109.966 62.5779 107.629 64.506 105.704C66.4342 103.779 68.7756 102.817 71.5301 102.817C74.2847 102.817 76.6206 103.779 78.5377 105.704C80.4548 107.629 81.4133 109.966 81.4133 112.716C81.4133 116.739 80.0462 120.039 77.312 122.616C74.5778 125.193 71.2307 126.482 67.2708 126.482ZM67.2708 120.825C69.4707 120.825 71.435 120.039 73.1635 118.468C74.892 116.896 75.7563 114.979 75.7563 112.716C75.7563 111.459 75.3635 110.438 74.5778 109.652C73.7921 108.867 72.7707 108.474 71.5135 108.474C70.2564 108.474 69.235 108.867 68.4493 109.652C67.6636 110.438 67.2708 111.459 67.2708 112.716C67.2708 115.168 67.0037 116.975 66.4694 118.138C65.9351 119.301 64.9451 120.008 63.4994 120.259C63.8766 120.322 64.5051 120.432 65.3851 120.589C66.2651 120.746 66.8937 120.825 67.2708 120.825ZM88.956 104.137L80.4705 95.1797L115.921 59.7291C116.801 58.8491 117.775 58.3934 118.844 58.362C119.912 58.3306 120.918 58.7863 121.861 59.7291L124.595 62.4633C125.538 63.4062 125.994 64.4276 125.962 65.5275C125.931 66.6275 125.475 67.6175 124.595 68.4975L88.956 104.137Z" fill="#2B2E39"/>
</svg>
